<svg width="400" height="400" viewBox="0 0 400 400" fill="none" xmlns="http://www.w3.org/2000/svg">
<g clip-path="url(#clip0_1873_12)">
<path d="M350 183.333H266.667C239.1 183.333 216.667 205.767 216.667 233.333V350C216.667 377.567 239.1 400 266.667 400H350C377.567 400 400 377.567 400 350V233.333C400 205.767 377.567 183.333 350 183.333ZM333.333 333.333H283.333C274.117 333.333 266.667 325.867 266.667 316.667C266.667 307.467 274.117 300 283.333 300H333.333C342.55 300 350 307.467 350 316.667C350 325.867 342.55 333.333 333.333 333.333ZM333.333 266.617H283.333C274.117 266.617 266.667 259.15 266.667 249.95C266.667 240.75 274.117 233.283 283.333 233.283H333.333C342.55 233.283 350 240.75 350 249.95C350 259.15 342.55 266.617 333.333 266.617ZM50 100C50 44.85 94.85 0 150 0C205.15 0 250 44.85 250 100C250 155.15 205.15 200 150 200C94.85 200 50 155.15 50 100ZM200.433 400H16.6667C7.38336 400 -0.0166386 392.333 2.80977e-05 383.05C0.150028 300.467 67.3834 233.333 150 233.333C161.467 233.333 172.6 234.75 183.333 237.2V350C183.333 368.833 189.85 386.033 200.433 400Z" fill="white"/>
</g>
<defs>
<clipPath id="clip0_1873_12">
<rect width="400" height="400" fill="white"/>
</clipPath>
</defs>
</svg>
