<svg width="512" height="512" viewBox="0 0 512 512" fill="none" xmlns="http://www.w3.org/2000/svg">
<g clip-path="url(#clip0_1873_4)">
<path d="M252.416 512.001C246.085 512.003 239.895 510.128 234.63 506.612C229.365 503.096 225.261 498.097 222.838 492.248C220.415 486.399 219.781 479.963 221.017 473.754C222.253 467.544 225.303 461.841 229.781 457.366L393.451 293.718C398.405 288.765 402.334 282.885 405.015 276.414C407.697 269.942 409.077 263.006 409.077 256C409.077 248.995 407.697 242.059 405.015 235.587C402.334 229.116 398.405 223.236 393.451 218.283L229.781 54.6352C226.809 51.6627 224.451 48.1339 222.842 44.2503C221.234 40.3666 220.406 36.2041 220.406 32.0005C220.406 23.5108 223.778 15.3689 229.781 9.36582C235.784 3.36273 243.926 -0.00976562 252.416 -0.00976562C256.62 -0.00976562 260.782 0.818204 264.666 2.42687C268.549 4.03554 272.078 6.39339 275.051 9.36582L438.699 173.035C460.702 195.039 473.063 224.883 473.063 256C473.063 287.118 460.702 316.962 438.699 338.966L275.051 502.635C272.078 505.606 268.549 507.962 264.665 509.569C260.781 511.176 256.619 512.002 252.416 512.001Z" fill="white"/>
<path d="M48.7891 512.001C42.4598 511.999 36.273 510.121 31.0113 506.604C25.7495 503.086 21.6491 498.087 19.2285 492.239C16.8079 486.391 16.176 479.956 17.4126 473.749C18.6492 467.541 21.6988 461.84 26.1757 457.366L219.989 263.553C220.982 262.562 221.771 261.385 222.308 260.089C222.846 258.793 223.123 257.404 223.123 256.001C223.123 254.598 222.846 253.208 222.308 251.913C221.771 250.617 220.982 249.44 219.989 248.449L26.1757 54.6354C20.1727 48.6352 16.799 40.4959 16.797 32.0083C16.795 23.5207 20.1648 15.3798 26.1651 9.37676C32.1653 3.37367 40.3046 4.81532e-05 48.7922 -0.00195223C57.2799 -0.00395262 65.4207 3.36583 71.4238 9.36609L265.258 203.201C279.22 217.222 287.058 236.203 287.058 255.99C287.058 275.777 279.22 294.758 265.258 308.779L71.4238 502.635C68.4508 505.607 64.9217 507.963 61.038 509.57C57.1543 511.177 52.9921 512.003 48.7891 512.001Z" fill="white"/>
</g>
<defs>
<clipPath id="clip0_1873_4">
<rect width="512" height="512" fill="white"/>
</clipPath>
</defs>
</svg>
