<svg width="512" height="512" viewBox="0 0 512 512" fill="none" xmlns="http://www.w3.org/2000/svg">
<g clip-path="url(#clip0_1873_7)">
<path d="M256 512.001C251.799 512.008 247.639 511.184 243.758 509.577C239.877 507.97 236.352 505.611 233.387 502.636L69.6319 338.966C47.6287 316.962 35.2676 287.119 35.2676 256.001C35.2676 224.883 47.6287 195.04 69.6319 173.035L233.301 9.36609C239.304 3.36583 247.445 -0.00395262 255.933 -0.00195223C264.42 4.81534e-05 272.56 3.37367 278.56 9.37676C284.56 15.3798 287.93 23.5207 287.928 32.0083C287.926 40.496 284.552 48.6352 278.549 54.6354L114.88 218.283C109.926 223.236 105.996 229.116 103.315 235.588C100.634 242.059 99.2539 248.996 99.2539 256.001C99.2539 263.006 100.634 269.942 103.315 276.414C105.996 282.885 109.926 288.765 114.88 293.718L278.549 457.366C283.022 461.836 286.071 467.532 287.309 473.733C288.548 479.934 287.921 486.364 285.509 492.209C283.096 498.055 279.006 503.054 273.754 506.577C268.502 510.099 262.324 511.987 256 512.001Z" fill="white"/>
<path d="M459.563 512C455.36 512.002 451.197 511.176 447.314 509.569C443.43 507.962 439.901 505.606 436.928 502.635L243.2 308.8C229.222 294.784 221.372 275.796 221.372 256C221.372 236.205 229.222 217.217 243.2 203.2L436.928 9.36567C442.986 3.64379 451.037 0.510597 459.369 0.632325C467.701 0.754052 475.657 4.1211 481.545 10.0175C487.433 15.9139 490.789 23.8746 490.898 32.2067C491.008 40.5389 487.864 48.5853 482.133 54.635L288.299 248.448C287.305 249.439 286.517 250.616 285.98 251.912C285.442 253.208 285.165 254.597 285.165 256C285.165 257.403 285.442 258.793 285.98 260.089C286.517 261.384 287.305 262.562 288.299 263.552L482.133 457.366C486.608 461.837 489.656 467.534 490.894 473.738C492.132 479.941 491.504 486.372 489.089 492.219C486.674 498.065 482.58 503.064 477.324 506.585C472.069 510.106 465.888 511.991 459.563 512Z" fill="white"/>
</g>
<defs>
<clipPath id="clip0_1873_7">
<rect width="512" height="512" fill="white"/>
</clipPath>
</defs>
</svg>
