<svg width="24" height="18" viewBox="0 0 24 18" fill="none" xmlns="http://www.w3.org/2000/svg">
<path d="M21 4.5C21 4.776 20.776 5 20.5 5H17.5C17.224 5 17 4.776 17 4.5C17 4.224 17.224 4 17.5 4H20.5C20.776 4 21 4.224 21 4.5ZM20.5 7H17.5C17.224 7 17 7.224 17 7.5C17 7.776 17.224 8 17.5 8H20.5C20.776 8 21 7.776 21 7.5C21 7.224 20.776 7 20.5 7ZM20.5 10H17.5C17.224 10 17 10.224 17 10.5C17 10.776 17.224 11 17.5 11H20.5C20.776 11 21 10.776 21 10.5C21 10.224 20.776 10 20.5 10ZM20.5 13H17.5C17.224 13 17 13.224 17 13.5C17 13.776 17.224 14 17.5 14H20.5C20.776 14 21 13.776 21 13.5C21 13.224 20.776 13 20.5 13ZM24 4.5V13.5C24 15.981 21.981 18 19.5 18H4.5C2.019 18 0 15.981 0 13.5V4.5C0 2.019 2.019 0 4.5 0H19.5C21.981 0 24 2.019 24 4.5ZM23 4.5C23 2.57 21.43 1 19.5 1H4.5C2.57 1 1 2.57 1 4.5V13.5C1 15.43 2.57 17 4.5 17H19.5C21.43 17 23 15.43 23 13.5V4.5ZM15 9C15 12.309 12.309 15 9 15C5.691 15 3 12.309 3 9C3 5.691 5.691 3 9 3C12.309 3 15 5.691 15 9ZM9 14C10.198 14 11.284 13.559 12.146 12.854L8.939 9.647C8.656 9.364 8.5 8.987 8.5 8.586V4.051C5.98 4.306 4 6.415 4 9C4 11.757 6.243 14 9 14ZM14 9C14 6.414 12.02 4.306 9.5 4.051V8.586C9.5 8.717 9.554 8.846 9.646 8.94L12.853 12.147C13.559 11.285 14 10.199 14 9Z" fill="white"/>
</svg>
