<svg width="24" height="24" viewBox="0 0 24 24" fill="none" xmlns="http://www.w3.org/2000/svg">
<path d="M24 14.9995C24 15.6165 23.76 16.1965 23.322 16.6335L21.25 18.7065C21.055 18.9015 20.799 18.9995 20.543 18.9995C20.287 18.9995 20.031 18.9015 19.836 18.7065C19.445 18.3155 19.445 17.6835 19.836 17.2925L21.128 15.9995H15C14.447 15.9995 14 15.5525 14 14.9995C14 14.4465 14.447 13.9995 15 13.9995H21.128L19.836 12.7065C19.445 12.3155 19.445 11.6835 19.836 11.2925C20.227 10.9015 20.859 10.9015 21.25 11.2925L23.323 13.3665C23.76 13.8025 24 14.3825 24 14.9995ZM14 10.9995V5.99948C14 4.89648 13.103 3.99948 12 3.99948V21.9985H13C13.552 21.9985 14 21.5505 14 20.9985V18.9985C14 18.4455 14.447 17.9985 15 17.9985C15.553 17.9985 16 18.4455 16 18.9985V20.9985C16 22.6525 14.654 23.9985 13 23.9985H3C1.346 23.9985 0 22.6525 0 20.9985V5.62048C0 3.24548 1.69 1.18348 4.019 0.717475L7.216 0.0784753C8.397 -0.157525 9.607 0.144475 10.537 0.907475C10.912 1.21448 11.202 1.59248 11.439 1.99948H12C14.206 1.99948 16 3.79348 16 5.99948V10.9995C16 11.5525 15.553 11.9995 15 11.9995C14.447 11.9995 14 11.5525 14 10.9995ZM9 12.4995C9 11.6715 8.328 10.9995 7.5 10.9995C6.672 10.9995 6 11.6715 6 12.4995C6 13.3275 6.672 13.9995 7.5 13.9995C8.328 13.9995 9 13.3275 9 12.4995Z" fill="#CC5050"/>
</svg>
