<svg version="1.1" id="svg285" xml:space="preserve" width="300" height="300" viewBox="0 0 32 32" xmlns="http://www.w3.org/2000/svg" xmlns:svg="http://www.w3.org/2000/svg" xmlns:xlink="http://www.w3.org/1999/xlink" xmlns:svgjs="http://svgjs.dev/svgjs"><g width="100%" height="100%" transform="matrix(1,0,0,1,0,0)"><defs id="defs289"><clipPath clipPathUnits="userSpaceOnUse" id="clipPath307"><path d="M 0,24 H 24 V 0 H 0 Z" id="path305" fill="#ffffff" fill-opacity="1" data-original-color="#000000ff" stroke="none" stroke-opacity="1"/></clipPath></defs><g id="g291" transform="matrix(1.3333333,0,0,-1.3333333,0,32)"><g id="g293" transform="translate(15.5,11.5)"><path d="M 0,0 H -7" style="stroke-linecap: round; stroke-linejoin: round; stroke-miterlimit: 10; stroke-dasharray: none;" id="path295" fill="none" fill-opacity="1" stroke="#ffffff" stroke-opacity="1" data-original-stroke-color="#000000ff" stroke-width="3" data-original-stroke-width="3"/></g><g id="g297" transform="translate(12.5,6.5)"><path d="M 0,0 H -4" style="stroke-linecap: round; stroke-linejoin: round; stroke-miterlimit: 10; stroke-dasharray: none;" id="path299" fill="none" fill-opacity="1" stroke="#ffffff" stroke-opacity="1" data-original-stroke-color="#000000ff" stroke-width="3" data-original-stroke-width="3"/></g><g id="g301"><g id="g303" clip-path="url(#clipPath307)"><g id="g309" transform="translate(16.5,1.5)"><path d="m 0,0 h -9 c -2.209,0 -4,1.791 -4,4 v 13 c 0,2.209 1.791,4 4,4 h 6.343 c 1.061,0 2.079,-0.421 2.829,-1.171 L 2.828,17.171 C 3.578,16.421 4,15.404 4,14.343 V 4 C 4,1.791 2.209,0 0,0 Z" style="stroke-linecap: round; stroke-linejoin: round; stroke-miterlimit: 10; stroke-dasharray: none;" id="path311" fill="none" fill-opacity="1" stroke="#ffffff" stroke-opacity="1" data-original-stroke-color="#000000ff" stroke-width="3" data-original-stroke-width="3"/></g><g id="g313" transform="translate(20.5,15.8433)"><path d="m 0,0 c 0,1.061 -0.422,2.078 -1.172,2.828 l -2.656,2.657 c -0.75,0.75 -1.768,1.172 -2.829,1.172 H -7.5 v -5.5 c 0,-1.105 0.896,-2 2,-2 H 0 Z" style="fill-rule: nonzero;" id="path315" fill="#ffffff" fill-opacity="1" data-original-color="#000000ff" stroke="none" stroke-opacity="1"/></g></g></g></g></g></svg>