<svg xmlns="http://www.w3.org/2000/svg" id="Layer_1" data-name="Layer 1" viewBox="0 0 24 24" width="300" height="300" version="1.1" xmlns:xlink="http://www.w3.org/1999/xlink" xmlns:svgjs="http://svgjs.dev/svgjs"><g width="100%" height="100%" transform="matrix(1,0,0,1,0,0)"><path d="m6.5,22v2H0v-2c0-1.105.895-2,2-2h2.5c1.105,0,2,.895,2,2Zm15.5-2h-2.5c-1.105,0-2,.895-2,2v2h6.5v-2c0-1.105-.895-2-2-2Zm-8.5,0h-3c-1.105,0-2,.895-2,2v2h7v-2c0-1.105-.895-2-2-2ZM24,3.5C24,1.57,22.43,0,20.5,0H3.5C1.57,0,0,1.57,0,3.5v9.872c.716-.71,1.674-1.161,2.733-1.264.09-.016.175-.047.267-.057V3.5c0-.275.224-.5.5-.5h17c.276,0,.5.225.5.5v8.551c.132.015.253.056.381.082,1.031.157,1.942.657,2.619,1.39V3.5Zm-.731,13c0-1.381-1.119-2.5-2.5-2.5s-2.5,1.119-2.5,2.5,1.119,2.5,2.5,2.5,2.5-1.119,2.5-2.5Zm-8.769,0c0-1.381-1.119-2.5-2.5-2.5s-2.5,1.119-2.5,2.5,1.119,2.5,2.5,2.5,2.5-1.119,2.5-2.5Zm-8.769,0c0-1.381-1.119-2.5-2.5-2.5s-2.5,1.119-2.5,2.5,1.119,2.5,2.5,2.5,2.5-1.119,2.5-2.5Z" fill="#ffffff" fill-opacity="1" data-original-color="#000000ff" stroke="none" stroke-opacity="1"/></g></svg>