<svg width="24" height="24" viewBox="0 0 24 24" fill="none" xmlns="http://www.w3.org/2000/svg">
<path d="M8 0C4.691 0 2 2.691 2 6C2 9.309 4.691 12 8 12C11.309 12 14 9.309 14 6C14 2.691 11.309 0 8 0ZM8 9C6.346 9 5 7.654 5 6C5 4.346 6.346 3 8 3C9.654 3 11 4.346 11 6C11 7.654 9.654 9 8 9ZM10.985 15.782C10.869 16.602 10.112 17.171 9.289 17.056C9.028 17.019 8.762 17 8.5 17C5.467 17 3 19.467 3 22.5C3 23.329 2.329 24 1.5 24C0.671 24 0 23.329 0 22.5C0 17.813 3.813 14 8.5 14C8.903 14 9.311 14.029 9.711 14.086C10.531 14.202 11.102 14.961 10.985 15.782ZM22.642 18.976L22.415 18.843C22.467 18.569 22.5 18.288 22.5 17.999C22.5 17.71 22.467 17.429 22.415 17.155L22.642 17.022C23.357 16.604 23.598 15.686 23.18 14.97C22.762 14.254 21.844 14.014 21.128 14.432L20.885 14.574C20.477 14.229 20.012 13.957 19.5 13.775V13.499C19.5 12.67 18.829 11.999 18 11.999C17.171 11.999 16.5 12.67 16.5 13.499V13.775C15.987 13.958 15.523 14.23 15.115 14.574L14.872 14.432C14.157 14.014 13.238 14.255 12.82 14.97C12.402 15.685 12.643 16.604 13.358 17.022L13.585 17.155C13.533 17.429 13.5 17.71 13.5 17.999C13.5 18.288 13.533 18.569 13.585 18.843L13.358 18.976C12.643 19.394 12.402 20.312 12.82 21.028C13.099 21.506 13.601 21.771 14.116 21.771C14.373 21.771 14.634 21.705 14.871 21.566L15.114 21.424C15.522 21.769 15.987 22.041 16.499 22.223V22.499C16.499 23.328 17.17 23.999 17.999 23.999C18.828 23.999 19.499 23.328 19.499 22.499V22.223C20.012 22.04 20.476 21.768 20.884 21.424L21.127 21.566C21.365 21.705 21.626 21.771 21.882 21.771C22.398 21.771 22.9 21.505 23.178 21.028C23.596 20.313 23.355 19.394 22.64 18.976H22.642ZM19.5 18C19.5 18.827 18.827 19.5 18 19.5C17.173 19.5 16.5 18.827 16.5 18C16.5 17.173 17.173 16.5 18 16.5C18.827 16.5 19.5 17.173 19.5 18Z" fill="white"/>
</svg>
