<svg width="24" height="22" viewBox="0 0 24 22" fill="none" xmlns="http://www.w3.org/2000/svg">
<path d="M21.5 0H2.5C1.122 0 0 1.122 0 2.5V22H24V2.5C24 1.122 22.878 0 21.5 0ZM2.5 1H21.5C22.327 1 23 1.673 23 2.5V7H1V2.5C1 1.673 1.673 1 2.5 1ZM1 21V8H23V21H1ZM3 4C3 3.448 3.448 3 4 3C4.552 3 5 3.448 5 4C5 4.552 4.552 5 4 5C3.448 5 3 4.552 3 4ZM6 4C6 3.448 6.448 3 7 3C7.552 3 8 3.448 8 4C8 4.552 7.552 5 7 5C6.448 5 6 4.552 6 4ZM9 4C9 3.448 9.448 3 10 3C10.552 3 11 3.448 11 4C11 4.552 10.552 5 10 5C9.448 5 9 4.552 9 4ZM15 19H21V10H15V19ZM16 11H20V18H16V11ZM3 14H14V10H3V14ZM4 11H13V13H4V11ZM3 19H14V15H3V19ZM4 16H13V18H4V16Z" fill="white"/>
</svg>
