<svg width="273" height="239" viewBox="0 0 273 239" fill="none" xmlns="http://www.w3.org/2000/svg">
<path fill-rule="evenodd" clip-rule="evenodd" d="M67.8127 1.56365C68.2391 3.26809 69.4993 10.3111 70.6093 17.2167C72.6702 30.0184 72.091 40.1279 68.4886 54.256C66.6391 61.5091 60.0492 75.0173 55.4387 81.0038C45.6143 93.7597 26.0063 107.265 8.17025 113.561C-0.0706068 116.471 -2.37459 118.538 2.62288 118.538C5.29473 118.538 6.68603 119.074 20.9274 125.59C42.2653 135.352 59.1505 154.645 65.4846 176.503C68.164 185.752 68.6847 190.192 68.6669 203.648C68.6541 212.92 67.8446 223.509 66.7575 228.645C65.7188 233.545 64.8697 237.999 64.8697 238.542C64.8697 239.086 68.4632 236.483 72.8535 232.757C88.2914 219.661 103.755 211.092 118.332 207.557C131.07 204.468 159.264 206.07 164.794 210.2C165.494 210.722 167.393 211.557 169.013 212.054C174.733 213.808 189.067 222.863 196.184 229.216C200.146 232.752 203.606 235.646 203.872 235.646C204.138 235.646 203.546 229.488 202.557 221.963C201.118 211.008 201.041 205.359 202.175 193.64C203.576 179.181 205.607 172.31 212.151 159.908C219.263 146.428 239.715 129.59 256.813 123.135C261.51 121.362 267.072 119.26 269.173 118.463L272.991 117.016L264.081 113.554C236.923 103.001 219.899 89.7856 209.512 71.1947C198.722 51.8807 196.181 29.7855 201.874 4.75231C202.676 1.22124 202.355 1.36635 193.935 8.34957C184.619 16.0762 166.227 25.7758 156.214 28.2427C152.42 29.1783 143.92 29.5092 133.302 29.135C119.493 28.6488 115.264 28.0276 110.058 25.716C93.5485 18.3852 88.1527 15.1864 75.8168 5.42059C68.1628 -0.639763 67.1343 -1.13493 67.8127 1.56365Z" fill="#FFE575"/>
</svg>
