<svg width="1053" height="441" viewBox="0 0 1053 441" fill="none" xmlns="http://www.w3.org/2000/svg">
<path fill-rule="evenodd" clip-rule="evenodd" d="M570.499 1.09383C541.349 1.51883 485.999 2.35284 447.499 2.94684C408.999 3.54084 324.348 4.02184 259.385 4.01384C184.407 4.00484 139.305 4.36684 135.885 5.00484C127.455 6.57884 118.797 11.3368 113.327 17.4028C110.672 20.3478 104.382 29.8988 99.3502 38.6288C94.3182 47.3578 83.7002 65.7498 75.7552 79.4998C16.0492 182.831 5.00217 202.023 2.94017 206C1.05917 209.63 0.526162 212.508 0.185162 220.883C-0.0808384 227.411 0.217171 232.785 0.988171 235.357C2.09117 239.038 13.3722 258.881 73.2712 362.5C83.1272 379.55 95.2672 400.565 100.249 409.2C110.325 426.667 115.871 433.088 124.778 437.601L130.499 440.5H245.499H360.499L366.183 437.62C373.445 433.94 377.648 429.854 388.019 416.39C431.881 359.449 487.736 300.29 541.999 253.302C584.525 216.478 639.068 176.588 678.499 153.474C728.056 124.424 803.936 90.2898 893.999 56.5308C934.588 41.3168 927.873 43.7638 964.999 30.6578C986.137 23.1968 1045.74 3.42983 1049.75 2.55283C1051.54 2.16083 1053 1.42684 1053 0.920839C1053 -0.187161 648.414 -0.0421719 570.499 1.09383ZM157.999 57.5678C178.462 73.9358 199.013 84.5868 220.999 90.2208C232.69 93.2158 259.508 93.4328 271.499 90.6288C295.367 85.0478 318.913 72.1458 338.348 53.9998C342.766 49.8748 346.021 47.0968 345.583 47.8268C342.835 52.4008 339.047 78.1078 339.019 92.3718C338.951 126.52 350.715 155.664 373.999 179.035C392.102 197.207 416.537 210.888 448.217 220.594L453.936 222.345L445.217 224.555C418.263 231.387 394.532 244.709 375.622 263.622C360.687 278.56 349.709 299.401 344.872 322C340.703 341.477 342.199 379.304 347.907 398.756C348.786 401.749 348.121 401.323 339.664 393.471C311.834 367.631 278.373 352.979 247.256 353.006C215.695 353.033 182.53 367.433 150.749 394.907C144.287 400.494 139.001 404.713 139.004 404.282C139.007 403.852 140.096 398.325 141.425 392C145.282 373.638 146.305 362.461 145.751 344.708C144.608 308.081 132.958 281.162 108.147 257.822C92.0962 242.722 68.2982 229.758 45.9992 223.966C43.5242 223.323 41.1332 222.574 40.6852 222.3C40.2372 222.026 44.5122 220.267 50.1852 218.389C63.8452 213.868 86.6242 202.507 97.4022 194.841C128.66 172.606 145.531 143.199 149.088 104.75C150.722 87.0818 147.413 58.2298 142.349 45.9998L140.9 42.4998L145.2 46.6348C147.564 48.9088 153.324 53.8288 157.999 57.5678Z" fill="black"/>
</svg>
